<mxfile host="app.diagrams.net" agent="Mozilla/5.0 (Macintosh; Intel Mac OS X 10_15_7) AppleWebKit/537.36 (KHTML, like Gecko) Chrome/133.0.0.0 Safari/537.36 Edg/133.0.0.0" version="26.2.12" pages="3">
  <diagram name="Requirement" id="1a9TIhCQsaB2a3skeYz1">
    <mxGraphModel dx="1984" dy="1011" grid="1" gridSize="10" guides="1" tooltips="1" connect="1" arrows="1" fold="1" page="1" pageScale="1" pageWidth="1169" pageHeight="827" math="0" shadow="0">
      <root>
        <mxCell id="0" />
        <mxCell id="1" parent="0" />
        <mxCell id="gCB_WG8x_ORxKZeke7Jf-1" value="&lt;p style=&quot;margin:0px;margin-top:4px;margin-left:7px;text-align:left;&quot;&gt;&lt;b&gt;req&lt;/b&gt;  ReqDiagram&lt;/p&gt;" style="html=1;shape=mxgraph.sysml.package;overflow=fill;labelX=110;strokeWidth=2;align=center;" vertex="1" parent="1">
          <mxGeometry x="150" y="40" width="1000" height="760" as="geometry" />
        </mxCell>
        <mxCell id="gCB_WG8x_ORxKZeke7Jf-2" value="&amp;lt;&amp;lt;requirement&amp;gt;&amp;gt;&lt;br&gt;Online Learning Progress Tracker" style="shape=rect;html=1;whiteSpace=wrap;align=center;" vertex="1" parent="1">
          <mxGeometry x="570" y="50" width="120" height="60" as="geometry" />
        </mxCell>
        <mxCell id="gCB_WG8x_ORxKZeke7Jf-4" value="&amp;lt;&amp;lt;requirement&amp;gt;&amp;gt;&lt;br&gt;&lt;b&gt;Non Functional Requirement&lt;/b&gt;" style="shape=rect;html=1;whiteSpace=wrap;align=center;" vertex="1" parent="1">
          <mxGeometry x="1010" y="180" width="120" height="60" as="geometry" />
        </mxCell>
        <mxCell id="gCB_WG8x_ORxKZeke7Jf-5" value="" style="rounded=0;html=1;labelBackgroundColor=none;endArrow=none;edgeStyle=elbowEdgeStyle;elbow=vertical;startArrow=sysMLPackCont;startSize=12;entryX=0.5;entryY=0;entryDx=0;entryDy=0;" edge="1" source="gCB_WG8x_ORxKZeke7Jf-2" target="gCB_WG8x_ORxKZeke7Jf-7" parent="1">
          <mxGeometry relative="1" as="geometry">
            <mxPoint x="390" y="170" as="targetPoint" />
          </mxGeometry>
        </mxCell>
        <mxCell id="gCB_WG8x_ORxKZeke7Jf-6" value="" style="rounded=0;html=1;labelBackgroundColor=none;endArrow=none;edgeStyle=elbowEdgeStyle;elbow=vertical;startArrow=sysMLPackCont;startSize=12;" edge="1" source="gCB_WG8x_ORxKZeke7Jf-2" target="gCB_WG8x_ORxKZeke7Jf-4" parent="1">
          <mxGeometry relative="1" as="geometry">
            <Array as="points">
              <mxPoint x="830" y="140" />
            </Array>
          </mxGeometry>
        </mxCell>
        <mxCell id="gCB_WG8x_ORxKZeke7Jf-7" value="&amp;lt;&amp;lt;requirement&amp;gt;&amp;gt;&lt;br&gt;&lt;b&gt;Functional Requirement&lt;/b&gt;" style="shape=rect;html=1;whiteSpace=wrap;align=center;" vertex="1" parent="1">
          <mxGeometry x="350" y="170" width="120" height="60" as="geometry" />
        </mxCell>
        <mxCell id="gCB_WG8x_ORxKZeke7Jf-10" value="" style="rounded=0;html=1;labelBackgroundColor=none;endArrow=none;edgeStyle=elbowEdgeStyle;elbow=vertical;startArrow=sysMLPackCont;startSize=12;entryX=0.5;entryY=0;entryDx=0;entryDy=0;" edge="1" source="gCB_WG8x_ORxKZeke7Jf-7" target="gCB_WG8x_ORxKZeke7Jf-13" parent="1">
          <mxGeometry relative="1" as="geometry">
            <mxPoint x="270" y="290" as="targetPoint" />
          </mxGeometry>
        </mxCell>
        <mxCell id="gCB_WG8x_ORxKZeke7Jf-11" value="" style="rounded=0;html=1;labelBackgroundColor=none;endArrow=none;edgeStyle=elbowEdgeStyle;elbow=vertical;startArrow=sysMLPackCont;startSize=12;entryX=0.5;entryY=0;entryDx=0;entryDy=0;" edge="1" source="gCB_WG8x_ORxKZeke7Jf-7" target="gCB_WG8x_ORxKZeke7Jf-27" parent="1">
          <mxGeometry relative="1" as="geometry">
            <mxPoint x="645" y="290" as="targetPoint" />
            <Array as="points">
              <mxPoint x="600" y="260" />
            </Array>
          </mxGeometry>
        </mxCell>
        <mxCell id="gCB_WG8x_ORxKZeke7Jf-12" value="" style="fontStyle=1;align=center;verticalAlign=middle;childLayout=stackLayout;horizontal=1;horizontalStack=0;resizeParent=1;resizeParentMax=0;resizeLast=0;marginBottom=0;" vertex="1" parent="1">
          <mxGeometry x="170" y="290" width="170" height="110" as="geometry" />
        </mxCell>
        <mxCell id="gCB_WG8x_ORxKZeke7Jf-13" value="&amp;lt;&amp;lt;requirement&amp;gt;&amp;gt;" style="html=1;align=center;spacing=0;verticalAlign=middle;strokeColor=none;fillColor=none;whiteSpace=wrap;spacingTop=3;" vertex="1" parent="gCB_WG8x_ORxKZeke7Jf-12">
          <mxGeometry width="170" height="16" as="geometry" />
        </mxCell>
        <mxCell id="gCB_WG8x_ORxKZeke7Jf-14" value="User Authentication" style="html=1;align=center;spacing=0;verticalAlign=middle;strokeColor=none;fillColor=none;whiteSpace=wrap;fontStyle=1" vertex="1" parent="gCB_WG8x_ORxKZeke7Jf-12">
          <mxGeometry y="16" width="170" height="18" as="geometry" />
        </mxCell>
        <mxCell id="gCB_WG8x_ORxKZeke7Jf-15" value="" style="line;strokeWidth=0.25;fillColor=none;align=left;verticalAlign=middle;spacingTop=-1;spacingLeft=3;spacingRight=3;rotatable=0;labelPosition=right;points=[];portConstraint=eastwest;" vertex="1" parent="gCB_WG8x_ORxKZeke7Jf-12">
          <mxGeometry y="34" width="170" height="8" as="geometry" />
        </mxCell>
        <mxCell id="gCB_WG8x_ORxKZeke7Jf-16" value="&lt;div&gt;text = &quot;Users must be able to register, login, and manage their profiles&quot;&lt;span style=&quot;background-color: transparent; color: light-dark(rgb(0, 0, 0), rgb(255, 255, 255));&quot;&gt;&lt;br&gt;id = &quot;FR-001&quot;&lt;/span&gt;&lt;/div&gt;" style="html=1;align=left;spacing=0;verticalAlign=middle;strokeColor=none;fillColor=none;whiteSpace=wrap;spacingLeft=10;" vertex="1" parent="gCB_WG8x_ORxKZeke7Jf-12">
          <mxGeometry y="42" width="170" height="68" as="geometry" />
        </mxCell>
        <mxCell id="gCB_WG8x_ORxKZeke7Jf-19" value="" style="fontStyle=1;align=center;verticalAlign=middle;childLayout=stackLayout;horizontal=1;horizontalStack=0;resizeParent=1;resizeParentMax=0;resizeLast=0;marginBottom=0;" vertex="1" parent="1">
          <mxGeometry x="390" y="290" width="170" height="110" as="geometry" />
        </mxCell>
        <mxCell id="gCB_WG8x_ORxKZeke7Jf-34" style="edgeStyle=orthogonalEdgeStyle;rounded=0;orthogonalLoop=1;jettySize=auto;html=1;exitX=0.5;exitY=0;exitDx=0;exitDy=0;endArrow=none;startFill=0;" edge="1" parent="gCB_WG8x_ORxKZeke7Jf-19" source="gCB_WG8x_ORxKZeke7Jf-20">
          <mxGeometry relative="1" as="geometry">
            <mxPoint x="85.15789473684208" y="-30" as="targetPoint" />
          </mxGeometry>
        </mxCell>
        <mxCell id="gCB_WG8x_ORxKZeke7Jf-20" value="&amp;lt;&amp;lt;requirement&amp;gt;&amp;gt;" style="html=1;align=center;spacing=0;verticalAlign=middle;strokeColor=none;fillColor=none;whiteSpace=wrap;spacingTop=3;" vertex="1" parent="gCB_WG8x_ORxKZeke7Jf-19">
          <mxGeometry width="170" height="16" as="geometry" />
        </mxCell>
        <mxCell id="gCB_WG8x_ORxKZeke7Jf-21" value="Course Management" style="html=1;align=center;spacing=0;verticalAlign=middle;strokeColor=none;fillColor=none;whiteSpace=wrap;fontStyle=1" vertex="1" parent="gCB_WG8x_ORxKZeke7Jf-19">
          <mxGeometry y="16" width="170" height="18" as="geometry" />
        </mxCell>
        <mxCell id="gCB_WG8x_ORxKZeke7Jf-22" value="" style="line;strokeWidth=0.25;fillColor=none;align=left;verticalAlign=middle;spacingTop=-1;spacingLeft=3;spacingRight=3;rotatable=0;labelPosition=right;points=[];portConstraint=eastwest;" vertex="1" parent="gCB_WG8x_ORxKZeke7Jf-19">
          <mxGeometry y="34" width="170" height="8" as="geometry" />
        </mxCell>
        <mxCell id="gCB_WG8x_ORxKZeke7Jf-23" value="&lt;div&gt;text = &quot;System must allow creation, viewing, and enrollment in courses&quot;&lt;/div&gt;&lt;div&gt;id = &quot;FR-002&quot;&amp;nbsp;&lt;/div&gt;" style="html=1;align=left;spacing=0;verticalAlign=middle;strokeColor=none;fillColor=none;whiteSpace=wrap;spacingLeft=10;" vertex="1" parent="gCB_WG8x_ORxKZeke7Jf-19">
          <mxGeometry y="42" width="170" height="68" as="geometry" />
        </mxCell>
        <mxCell id="gCB_WG8x_ORxKZeke7Jf-26" value="" style="fontStyle=1;align=center;verticalAlign=middle;childLayout=stackLayout;horizontal=1;horizontalStack=0;resizeParent=1;resizeParentMax=0;resizeLast=0;marginBottom=0;" vertex="1" parent="1">
          <mxGeometry x="600" y="290" width="170" height="110" as="geometry" />
        </mxCell>
        <mxCell id="gCB_WG8x_ORxKZeke7Jf-27" value="&amp;lt;&amp;lt;requirement&amp;gt;&amp;gt;" style="html=1;align=center;spacing=0;verticalAlign=middle;strokeColor=none;fillColor=none;whiteSpace=wrap;spacingTop=3;" vertex="1" parent="gCB_WG8x_ORxKZeke7Jf-26">
          <mxGeometry width="170" height="16" as="geometry" />
        </mxCell>
        <mxCell id="gCB_WG8x_ORxKZeke7Jf-28" value="Progress Tracking" style="html=1;align=center;spacing=0;verticalAlign=middle;strokeColor=none;fillColor=none;whiteSpace=wrap;fontStyle=1" vertex="1" parent="gCB_WG8x_ORxKZeke7Jf-26">
          <mxGeometry y="16" width="170" height="18" as="geometry" />
        </mxCell>
        <mxCell id="gCB_WG8x_ORxKZeke7Jf-29" value="" style="line;strokeWidth=0.25;fillColor=none;align=left;verticalAlign=middle;spacingTop=-1;spacingLeft=3;spacingRight=3;rotatable=0;labelPosition=right;points=[];portConstraint=eastwest;" vertex="1" parent="gCB_WG8x_ORxKZeke7Jf-26">
          <mxGeometry y="34" width="170" height="8" as="geometry" />
        </mxCell>
        <mxCell id="gCB_WG8x_ORxKZeke7Jf-30" value="&lt;div&gt;text = &quot;System must track and display student learning progress&quot;&lt;/div&gt;&lt;div&gt;id = &quot;FR-003&quot;&lt;/div&gt;" style="html=1;align=left;spacing=0;verticalAlign=middle;strokeColor=none;fillColor=none;whiteSpace=wrap;spacingLeft=10;" vertex="1" parent="gCB_WG8x_ORxKZeke7Jf-26">
          <mxGeometry y="42" width="170" height="68" as="geometry" />
        </mxCell>
        <mxCell id="gCB_WG8x_ORxKZeke7Jf-36" value="" style="fontStyle=1;align=center;verticalAlign=middle;childLayout=stackLayout;horizontal=1;horizontalStack=0;resizeParent=1;resizeParentMax=0;resizeLast=0;marginBottom=0;" vertex="1" parent="1">
          <mxGeometry x="790" y="359" width="200" height="110" as="geometry" />
        </mxCell>
        <mxCell id="gCB_WG8x_ORxKZeke7Jf-44" style="edgeStyle=orthogonalEdgeStyle;rounded=0;orthogonalLoop=1;jettySize=auto;html=1;endArrow=circlePlus;endFill=0;exitX=0.5;exitY=0;exitDx=0;exitDy=0;" edge="1" parent="gCB_WG8x_ORxKZeke7Jf-36" source="gCB_WG8x_ORxKZeke7Jf-37">
          <mxGeometry relative="1" as="geometry">
            <mxPoint x="40" y="-219" as="targetPoint" />
            <Array as="points">
              <mxPoint x="40" />
              <mxPoint x="40" y="-219" />
            </Array>
          </mxGeometry>
        </mxCell>
        <mxCell id="gCB_WG8x_ORxKZeke7Jf-37" value="&amp;lt;&amp;lt;requirement&amp;gt;&amp;gt;" style="html=1;align=center;spacing=0;verticalAlign=middle;strokeColor=none;fillColor=none;whiteSpace=wrap;spacingTop=3;" vertex="1" parent="gCB_WG8x_ORxKZeke7Jf-36">
          <mxGeometry width="200" height="16" as="geometry" />
        </mxCell>
        <mxCell id="gCB_WG8x_ORxKZeke7Jf-38" value="Feedback Report" style="html=1;align=center;spacing=0;verticalAlign=middle;strokeColor=none;fillColor=none;whiteSpace=wrap;fontStyle=1" vertex="1" parent="gCB_WG8x_ORxKZeke7Jf-36">
          <mxGeometry y="16" width="200" height="18" as="geometry" />
        </mxCell>
        <mxCell id="gCB_WG8x_ORxKZeke7Jf-39" value="" style="line;strokeWidth=0.25;fillColor=none;align=left;verticalAlign=middle;spacingTop=-1;spacingLeft=3;spacingRight=3;rotatable=0;labelPosition=right;points=[];portConstraint=eastwest;" vertex="1" parent="gCB_WG8x_ORxKZeke7Jf-36">
          <mxGeometry y="34" width="200" height="8" as="geometry" />
        </mxCell>
        <mxCell id="gCB_WG8x_ORxKZeke7Jf-40" value="text=&quot;System shall collect user feedback for suggestion, bug report, and rating&quot;&lt;br&gt;id = &quot;FR-004&quot;" style="html=1;align=left;spacing=0;verticalAlign=middle;strokeColor=none;fillColor=none;whiteSpace=wrap;spacingLeft=10;" vertex="1" parent="gCB_WG8x_ORxKZeke7Jf-36">
          <mxGeometry y="42" width="200" height="68" as="geometry" />
        </mxCell>
        <mxCell id="gCB_WG8x_ORxKZeke7Jf-45" value="" style="fontStyle=1;align=center;verticalAlign=middle;childLayout=stackLayout;horizontal=1;horizontalStack=0;resizeParent=1;resizeParentMax=0;resizeLast=0;marginBottom=0;" vertex="1" parent="1">
          <mxGeometry x="170" y="640" width="170" height="90" as="geometry" />
        </mxCell>
        <mxCell id="gCB_WG8x_ORxKZeke7Jf-46" value="&amp;lt;&amp;lt;requirement&amp;gt;&amp;gt;" style="html=1;align=center;spacing=0;verticalAlign=middle;strokeColor=none;fillColor=none;whiteSpace=wrap;spacingTop=3;" vertex="1" parent="gCB_WG8x_ORxKZeke7Jf-45">
          <mxGeometry width="170" height="16" as="geometry" />
        </mxCell>
        <mxCell id="gCB_WG8x_ORxKZeke7Jf-47" value="Sign-up" style="html=1;align=center;spacing=0;verticalAlign=middle;strokeColor=none;fillColor=none;whiteSpace=wrap;fontStyle=1" vertex="1" parent="gCB_WG8x_ORxKZeke7Jf-45">
          <mxGeometry y="16" width="170" height="18" as="geometry" />
        </mxCell>
        <mxCell id="gCB_WG8x_ORxKZeke7Jf-48" value="" style="line;strokeWidth=0.25;fillColor=none;align=left;verticalAlign=middle;spacingTop=-1;spacingLeft=3;spacingRight=3;rotatable=0;labelPosition=right;points=[];portConstraint=eastwest;" vertex="1" parent="gCB_WG8x_ORxKZeke7Jf-45">
          <mxGeometry y="34" width="170" height="8" as="geometry" />
        </mxCell>
        <mxCell id="gCB_WG8x_ORxKZeke7Jf-49" value="text=&quot;Implement user registration&quot;&lt;br&gt;&lt;div&gt;id = &quot;FR-006&quot;&lt;/div&gt;" style="html=1;align=left;spacing=0;verticalAlign=middle;strokeColor=none;fillColor=none;whiteSpace=wrap;spacingLeft=10;" vertex="1" parent="gCB_WG8x_ORxKZeke7Jf-45">
          <mxGeometry y="42" width="170" height="48" as="geometry" />
        </mxCell>
        <mxCell id="gCB_WG8x_ORxKZeke7Jf-52" value="" style="fontStyle=1;align=center;verticalAlign=middle;childLayout=stackLayout;horizontal=1;horizontalStack=0;resizeParent=1;resizeParentMax=0;resizeLast=0;marginBottom=0;" vertex="1" parent="1">
          <mxGeometry x="170" y="480" width="170" height="90" as="geometry" />
        </mxCell>
        <mxCell id="gCB_WG8x_ORxKZeke7Jf-53" value="&amp;lt;&amp;lt;requirement&amp;gt;&amp;gt;" style="html=1;align=center;spacing=0;verticalAlign=middle;strokeColor=none;fillColor=none;whiteSpace=wrap;spacingTop=3;" vertex="1" parent="gCB_WG8x_ORxKZeke7Jf-52">
          <mxGeometry width="170" height="16" as="geometry" />
        </mxCell>
        <mxCell id="gCB_WG8x_ORxKZeke7Jf-54" value="Login" style="html=1;align=center;spacing=0;verticalAlign=middle;strokeColor=none;fillColor=none;whiteSpace=wrap;fontStyle=1" vertex="1" parent="gCB_WG8x_ORxKZeke7Jf-52">
          <mxGeometry y="16" width="170" height="18" as="geometry" />
        </mxCell>
        <mxCell id="gCB_WG8x_ORxKZeke7Jf-55" value="" style="line;strokeWidth=0.25;fillColor=none;align=left;verticalAlign=middle;spacingTop=-1;spacingLeft=3;spacingRight=3;rotatable=0;labelPosition=right;points=[];portConstraint=eastwest;" vertex="1" parent="gCB_WG8x_ORxKZeke7Jf-52">
          <mxGeometry y="34" width="170" height="8" as="geometry" />
        </mxCell>
        <mxCell id="gCB_WG8x_ORxKZeke7Jf-56" value="text=&quot;Secure Authentication&quot;&lt;br&gt;&lt;div&gt;id = &quot;FR-005&quot;&lt;/div&gt;" style="html=1;align=left;spacing=0;verticalAlign=middle;strokeColor=none;fillColor=none;whiteSpace=wrap;spacingLeft=10;" vertex="1" parent="gCB_WG8x_ORxKZeke7Jf-52">
          <mxGeometry y="42" width="170" height="48" as="geometry" />
        </mxCell>
        <mxCell id="gCB_WG8x_ORxKZeke7Jf-57" style="edgeStyle=orthogonalEdgeStyle;rounded=0;orthogonalLoop=1;jettySize=auto;html=1;entryX=0.5;entryY=1;entryDx=0;entryDy=0;dashed=1;endArrow=open;endFill=0;exitX=0.5;exitY=0;exitDx=0;exitDy=0;" edge="1" parent="1" source="gCB_WG8x_ORxKZeke7Jf-46" target="gCB_WG8x_ORxKZeke7Jf-56">
          <mxGeometry relative="1" as="geometry">
            <mxPoint x="252" y="660" as="sourcePoint" />
            <Array as="points" />
          </mxGeometry>
        </mxCell>
        <mxCell id="gCB_WG8x_ORxKZeke7Jf-58" value="&amp;lt;&amp;lt;requires&amp;gt;&amp;gt;" style="edgeLabel;html=1;align=center;verticalAlign=middle;resizable=0;points=[];" vertex="1" connectable="0" parent="gCB_WG8x_ORxKZeke7Jf-57">
          <mxGeometry x="0.4013" y="-1" relative="1" as="geometry">
            <mxPoint as="offset" />
          </mxGeometry>
        </mxCell>
        <mxCell id="gCB_WG8x_ORxKZeke7Jf-59" style="edgeStyle=orthogonalEdgeStyle;rounded=0;orthogonalLoop=1;jettySize=auto;html=1;entryX=0.5;entryY=1;entryDx=0;entryDy=0;dashed=1;endArrow=open;endFill=0;exitX=0.5;exitY=0;exitDx=0;exitDy=0;" edge="1" parent="1" source="gCB_WG8x_ORxKZeke7Jf-53" target="gCB_WG8x_ORxKZeke7Jf-16">
          <mxGeometry relative="1" as="geometry">
            <mxPoint x="250" y="484" as="sourcePoint" />
            <mxPoint x="250" y="414" as="targetPoint" />
            <Array as="points" />
          </mxGeometry>
        </mxCell>
        <mxCell id="gCB_WG8x_ORxKZeke7Jf-60" value="&amp;lt;&amp;lt;depends on&amp;gt;&amp;gt;" style="edgeLabel;html=1;align=center;verticalAlign=middle;resizable=0;points=[];" vertex="1" connectable="0" parent="gCB_WG8x_ORxKZeke7Jf-59">
          <mxGeometry x="0.4013" y="-1" relative="1" as="geometry">
            <mxPoint as="offset" />
          </mxGeometry>
        </mxCell>
        <mxCell id="gCB_WG8x_ORxKZeke7Jf-61" value="" style="fontStyle=1;align=center;verticalAlign=middle;childLayout=stackLayout;horizontal=1;horizontalStack=0;resizeParent=1;resizeParentMax=0;resizeLast=0;marginBottom=0;" vertex="1" parent="1">
          <mxGeometry x="390" y="670" width="170" height="110" as="geometry" />
        </mxCell>
        <mxCell id="gCB_WG8x_ORxKZeke7Jf-62" value="&amp;lt;&amp;lt;requirement&amp;gt;&amp;gt;" style="html=1;align=center;spacing=0;verticalAlign=middle;strokeColor=none;fillColor=none;whiteSpace=wrap;spacingTop=3;" vertex="1" parent="gCB_WG8x_ORxKZeke7Jf-61">
          <mxGeometry width="170" height="16" as="geometry" />
        </mxCell>
        <mxCell id="gCB_WG8x_ORxKZeke7Jf-63" value="Course Catalogue" style="html=1;align=center;spacing=0;verticalAlign=middle;strokeColor=none;fillColor=none;whiteSpace=wrap;fontStyle=1" vertex="1" parent="gCB_WG8x_ORxKZeke7Jf-61">
          <mxGeometry y="16" width="170" height="18" as="geometry" />
        </mxCell>
        <mxCell id="gCB_WG8x_ORxKZeke7Jf-64" value="" style="line;strokeWidth=0.25;fillColor=none;align=left;verticalAlign=middle;spacingTop=-1;spacingLeft=3;spacingRight=3;rotatable=0;labelPosition=right;points=[];portConstraint=eastwest;" vertex="1" parent="gCB_WG8x_ORxKZeke7Jf-61">
          <mxGeometry y="34" width="170" height="8" as="geometry" />
        </mxCell>
        <mxCell id="gCB_WG8x_ORxKZeke7Jf-65" value="text=&quot;Browse courses by category, difficulty, and search terms&quot;&lt;br&gt;&lt;div&gt;id = &quot;FR-008&quot;&lt;/div&gt;" style="html=1;align=left;spacing=0;verticalAlign=middle;strokeColor=none;fillColor=none;whiteSpace=wrap;spacingLeft=10;" vertex="1" parent="gCB_WG8x_ORxKZeke7Jf-61">
          <mxGeometry y="42" width="170" height="68" as="geometry" />
        </mxCell>
        <mxCell id="gCB_WG8x_ORxKZeke7Jf-66" value="" style="fontStyle=1;align=center;verticalAlign=middle;childLayout=stackLayout;horizontal=1;horizontalStack=0;resizeParent=1;resizeParentMax=0;resizeLast=0;marginBottom=0;" vertex="1" parent="1">
          <mxGeometry x="390" y="490" width="170" height="110" as="geometry" />
        </mxCell>
        <mxCell id="gCB_WG8x_ORxKZeke7Jf-67" value="&amp;lt;&amp;lt;requirement&amp;gt;&amp;gt;" style="html=1;align=center;spacing=0;verticalAlign=middle;strokeColor=none;fillColor=none;whiteSpace=wrap;spacingTop=3;" vertex="1" parent="gCB_WG8x_ORxKZeke7Jf-66">
          <mxGeometry width="170" height="16" as="geometry" />
        </mxCell>
        <mxCell id="gCB_WG8x_ORxKZeke7Jf-68" value="Course Enrollment" style="html=1;align=center;spacing=0;verticalAlign=middle;strokeColor=none;fillColor=none;whiteSpace=wrap;fontStyle=1" vertex="1" parent="gCB_WG8x_ORxKZeke7Jf-66">
          <mxGeometry y="16" width="170" height="18" as="geometry" />
        </mxCell>
        <mxCell id="gCB_WG8x_ORxKZeke7Jf-69" value="" style="line;strokeWidth=0.25;fillColor=none;align=left;verticalAlign=middle;spacingTop=-1;spacingLeft=3;spacingRight=3;rotatable=0;labelPosition=right;points=[];portConstraint=eastwest;" vertex="1" parent="gCB_WG8x_ORxKZeke7Jf-66">
          <mxGeometry y="34" width="170" height="8" as="geometry" />
        </mxCell>
        <mxCell id="gCB_WG8x_ORxKZeke7Jf-70" value="text=&quot;&lt;span style=&quot;background-color: transparent;&quot;&gt;Complete course modules with progress tracking&lt;/span&gt;&quot;&lt;br&gt;&lt;div&gt;id = &quot;FR-007&quot;&lt;/div&gt;" style="html=1;align=left;spacing=0;verticalAlign=middle;strokeColor=none;fillColor=none;whiteSpace=wrap;spacingLeft=10;" vertex="1" parent="gCB_WG8x_ORxKZeke7Jf-66">
          <mxGeometry y="42" width="170" height="68" as="geometry" />
        </mxCell>
        <mxCell id="gCB_WG8x_ORxKZeke7Jf-71" style="edgeStyle=orthogonalEdgeStyle;rounded=0;orthogonalLoop=1;jettySize=auto;html=1;entryX=0.453;entryY=1.007;entryDx=0;entryDy=0;dashed=1;endArrow=open;endFill=0;exitX=0.459;exitY=0.031;exitDx=0;exitDy=0;entryPerimeter=0;exitPerimeter=0;" edge="1" parent="1" source="gCB_WG8x_ORxKZeke7Jf-62" target="gCB_WG8x_ORxKZeke7Jf-70">
          <mxGeometry relative="1" as="geometry">
            <mxPoint x="470" y="640" as="sourcePoint" />
            <mxPoint x="470" y="560" as="targetPoint" />
            <Array as="points">
              <mxPoint x="468" y="640" />
              <mxPoint x="467" y="640" />
            </Array>
          </mxGeometry>
        </mxCell>
        <mxCell id="gCB_WG8x_ORxKZeke7Jf-72" value="&amp;lt;&amp;lt;depends on&amp;gt;&amp;gt;" style="edgeLabel;html=1;align=center;verticalAlign=middle;resizable=0;points=[];" vertex="1" connectable="0" parent="gCB_WG8x_ORxKZeke7Jf-71">
          <mxGeometry x="0.4013" y="-1" relative="1" as="geometry">
            <mxPoint as="offset" />
          </mxGeometry>
        </mxCell>
        <mxCell id="gCB_WG8x_ORxKZeke7Jf-73" style="edgeStyle=orthogonalEdgeStyle;rounded=0;orthogonalLoop=1;jettySize=auto;html=1;entryX=0.5;entryY=1;entryDx=0;entryDy=0;dashed=1;endArrow=open;endFill=0;exitX=0.5;exitY=0;exitDx=0;exitDy=0;" edge="1" parent="1" source="gCB_WG8x_ORxKZeke7Jf-67" target="gCB_WG8x_ORxKZeke7Jf-23">
          <mxGeometry relative="1" as="geometry">
            <mxPoint x="474.5" y="480" as="sourcePoint" />
            <mxPoint x="474.5" y="410" as="targetPoint" />
            <Array as="points" />
          </mxGeometry>
        </mxCell>
        <mxCell id="gCB_WG8x_ORxKZeke7Jf-74" value="&amp;lt;&amp;lt;requires&amp;gt;&amp;gt;" style="edgeLabel;html=1;align=center;verticalAlign=middle;resizable=0;points=[];" vertex="1" connectable="0" parent="gCB_WG8x_ORxKZeke7Jf-73">
          <mxGeometry x="0.4013" y="-1" relative="1" as="geometry">
            <mxPoint as="offset" />
          </mxGeometry>
        </mxCell>
        <mxCell id="gCB_WG8x_ORxKZeke7Jf-75" value="" style="fontStyle=1;align=center;verticalAlign=middle;childLayout=stackLayout;horizontal=1;horizontalStack=0;resizeParent=1;resizeParentMax=0;resizeLast=0;marginBottom=0;" vertex="1" parent="1">
          <mxGeometry x="690" y="490" width="170" height="110" as="geometry" />
        </mxCell>
        <mxCell id="gCB_WG8x_ORxKZeke7Jf-76" value="&amp;lt;&amp;lt;requirement&amp;gt;&amp;gt;" style="html=1;align=center;spacing=0;verticalAlign=middle;strokeColor=none;fillColor=none;whiteSpace=wrap;spacingTop=3;" vertex="1" parent="gCB_WG8x_ORxKZeke7Jf-75">
          <mxGeometry width="170" height="16" as="geometry" />
        </mxCell>
        <mxCell id="gCB_WG8x_ORxKZeke7Jf-77" value="Progress Analytics" style="html=1;align=center;spacing=0;verticalAlign=middle;strokeColor=none;fillColor=none;whiteSpace=wrap;fontStyle=1" vertex="1" parent="gCB_WG8x_ORxKZeke7Jf-75">
          <mxGeometry y="16" width="170" height="18" as="geometry" />
        </mxCell>
        <mxCell id="gCB_WG8x_ORxKZeke7Jf-78" value="" style="line;strokeWidth=0.25;fillColor=none;align=left;verticalAlign=middle;spacingTop=-1;spacingLeft=3;spacingRight=3;rotatable=0;labelPosition=right;points=[];portConstraint=eastwest;" vertex="1" parent="gCB_WG8x_ORxKZeke7Jf-75">
          <mxGeometry y="34" width="170" height="8" as="geometry" />
        </mxCell>
        <mxCell id="gCB_WG8x_ORxKZeke7Jf-79" value="text=&quot;Detailed analytics and learning statistics&quot;&lt;br&gt;&lt;div&gt;id = &quot;FR-009&quot;&lt;/div&gt;" style="html=1;align=left;spacing=0;verticalAlign=middle;strokeColor=none;fillColor=none;whiteSpace=wrap;spacingLeft=10;" vertex="1" parent="gCB_WG8x_ORxKZeke7Jf-75">
          <mxGeometry y="42" width="170" height="68" as="geometry" />
        </mxCell>
        <mxCell id="gCB_WG8x_ORxKZeke7Jf-80" style="edgeStyle=orthogonalEdgeStyle;rounded=0;orthogonalLoop=1;jettySize=auto;html=1;entryX=0.75;entryY=1;entryDx=0;entryDy=0;dashed=1;endArrow=open;endFill=0;exitX=0.25;exitY=0;exitDx=0;exitDy=0;" edge="1" parent="1" source="gCB_WG8x_ORxKZeke7Jf-76" target="gCB_WG8x_ORxKZeke7Jf-30">
          <mxGeometry relative="1" as="geometry">
            <mxPoint x="701" y="480" as="sourcePoint" />
            <mxPoint x="700" y="410" as="targetPoint" />
            <Array as="points">
              <mxPoint x="728" y="490" />
              <mxPoint x="728" y="450" />
            </Array>
          </mxGeometry>
        </mxCell>
        <mxCell id="gCB_WG8x_ORxKZeke7Jf-81" value="&amp;lt;&amp;lt;depends on&amp;gt;&amp;gt;" style="edgeLabel;html=1;align=center;verticalAlign=middle;resizable=0;points=[];" vertex="1" connectable="0" parent="gCB_WG8x_ORxKZeke7Jf-80">
          <mxGeometry x="0.4013" y="-1" relative="1" as="geometry">
            <mxPoint as="offset" />
          </mxGeometry>
        </mxCell>
        <mxCell id="gCB_WG8x_ORxKZeke7Jf-82" style="edgeStyle=orthogonalEdgeStyle;rounded=0;orthogonalLoop=1;jettySize=auto;html=1;entryX=1;entryY=0.25;entryDx=0;entryDy=0;dashed=1;endArrow=open;endFill=0;exitX=0;exitY=0.25;exitDx=0;exitDy=0;" edge="1" parent="1" source="gCB_WG8x_ORxKZeke7Jf-79" target="gCB_WG8x_ORxKZeke7Jf-70">
          <mxGeometry relative="1" as="geometry">
            <mxPoint x="625" y="620" as="sourcePoint" />
            <mxPoint x="620" y="530" as="targetPoint" />
            <Array as="points">
              <mxPoint x="590" y="549" />
              <mxPoint x="590" y="549" />
            </Array>
          </mxGeometry>
        </mxCell>
        <mxCell id="gCB_WG8x_ORxKZeke7Jf-83" value="&amp;lt;&amp;lt;depends on&amp;gt;&amp;gt;" style="edgeLabel;html=1;align=center;verticalAlign=middle;resizable=0;points=[];" vertex="1" connectable="0" parent="gCB_WG8x_ORxKZeke7Jf-82">
          <mxGeometry x="0.4013" y="-1" relative="1" as="geometry">
            <mxPoint x="21" y="-3" as="offset" />
          </mxGeometry>
        </mxCell>
        <mxCell id="gCB_WG8x_ORxKZeke7Jf-90" value="&amp;lt;&amp;lt;requirement&amp;gt;&amp;gt;&lt;br&gt;&lt;b&gt;Security&lt;/b&gt;" style="shape=rect;html=1;whiteSpace=wrap;align=center;" vertex="1" parent="1">
          <mxGeometry x="920" y="670" width="120" height="60" as="geometry" />
        </mxCell>
        <mxCell id="gCB_WG8x_ORxKZeke7Jf-97" style="edgeStyle=orthogonalEdgeStyle;rounded=0;orthogonalLoop=1;jettySize=auto;html=1;endArrow=none;startFill=0;" edge="1" parent="1" source="gCB_WG8x_ORxKZeke7Jf-91">
          <mxGeometry relative="1" as="geometry">
            <mxPoint x="1070" y="545" as="targetPoint" />
          </mxGeometry>
        </mxCell>
        <mxCell id="gCB_WG8x_ORxKZeke7Jf-91" value="&amp;lt;&amp;lt;requirement&amp;gt;&amp;gt;&lt;br&gt;&lt;b&gt;Usability&lt;/b&gt;" style="shape=rect;html=1;whiteSpace=wrap;align=center;" vertex="1" parent="1">
          <mxGeometry x="920" y="515" width="120" height="60" as="geometry" />
        </mxCell>
        <mxCell id="gCB_WG8x_ORxKZeke7Jf-92" value="" style="rounded=0;html=1;labelBackgroundColor=none;endArrow=none;edgeStyle=elbowEdgeStyle;elbow=vertical;startArrow=sysMLPackCont;startSize=12;exitX=0.5;exitY=1;exitDx=0;exitDy=0;entryX=1;entryY=0.5;entryDx=0;entryDy=0;" edge="1" source="gCB_WG8x_ORxKZeke7Jf-4" target="gCB_WG8x_ORxKZeke7Jf-90" parent="1">
          <mxGeometry relative="1" as="geometry">
            <mxPoint x="1040" y="240" as="sourcePoint" />
            <Array as="points">
              <mxPoint x="1070" y="700" />
            </Array>
          </mxGeometry>
        </mxCell>
        <mxCell id="gCB_WG8x_ORxKZeke7Jf-95" style="edgeStyle=orthogonalEdgeStyle;rounded=0;orthogonalLoop=1;jettySize=auto;html=1;endArrow=none;startFill=0;exitX=1;exitY=0.5;exitDx=0;exitDy=0;" edge="1" parent="1" source="gCB_WG8x_ORxKZeke7Jf-94">
          <mxGeometry relative="1" as="geometry">
            <mxPoint x="1070" y="620" as="targetPoint" />
          </mxGeometry>
        </mxCell>
        <mxCell id="gCB_WG8x_ORxKZeke7Jf-94" value="&amp;lt;&amp;lt;requirement&amp;gt;&amp;gt;&lt;br&gt;&lt;b&gt;Performance&lt;/b&gt;" style="shape=rect;html=1;whiteSpace=wrap;align=center;" vertex="1" parent="1">
          <mxGeometry x="920" y="590" width="120" height="60" as="geometry" />
        </mxCell>
        <mxCell id="gCB_WG8x_ORxKZeke7Jf-98" value="Student" style="shape=umlActor;html=1;verticalLabelPosition=bottom;verticalAlign=top;align=center;" vertex="1" parent="1">
          <mxGeometry x="30" y="200" width="30" height="60" as="geometry" />
        </mxCell>
        <mxCell id="gCB_WG8x_ORxKZeke7Jf-99" value="Instructor" style="shape=umlActor;html=1;verticalLabelPosition=bottom;verticalAlign=top;align=center;" vertex="1" parent="1">
          <mxGeometry x="30" y="401" width="30" height="60" as="geometry" />
        </mxCell>
        <mxCell id="gCB_WG8x_ORxKZeke7Jf-101" value="Administrator" style="shape=umlActor;html=1;verticalLabelPosition=bottom;verticalAlign=top;align=center;" vertex="1" parent="1">
          <mxGeometry x="30" y="618" width="30" height="60" as="geometry" />
        </mxCell>
        <mxCell id="gCB_WG8x_ORxKZeke7Jf-104" style="edgeStyle=orthogonalEdgeStyle;rounded=0;orthogonalLoop=1;jettySize=auto;html=1;entryX=0;entryY=0.25;entryDx=0;entryDy=0;entryPerimeter=0;dashed=1;endArrow=open;endFill=0;exitX=0.5;exitY=0.5;exitDx=0;exitDy=0;exitPerimeter=0;" edge="1" parent="1" source="gCB_WG8x_ORxKZeke7Jf-98" target="gCB_WG8x_ORxKZeke7Jf-1">
          <mxGeometry relative="1" as="geometry" />
        </mxCell>
        <mxCell id="gCB_WG8x_ORxKZeke7Jf-105" value="&amp;lt;&amp;lt;use&amp;gt;&amp;gt;" style="edgeLabel;html=1;align=center;verticalAlign=middle;resizable=0;points=[];" vertex="1" connectable="0" parent="gCB_WG8x_ORxKZeke7Jf-104">
          <mxGeometry x="-0.1587" relative="1" as="geometry">
            <mxPoint y="10" as="offset" />
          </mxGeometry>
        </mxCell>
        <mxCell id="gCB_WG8x_ORxKZeke7Jf-106" style="edgeStyle=orthogonalEdgeStyle;rounded=0;orthogonalLoop=1;jettySize=auto;html=1;entryX=-0.002;entryY=0.515;entryDx=0;entryDy=0;entryPerimeter=0;dashed=1;endArrow=open;endFill=0;exitX=0.5;exitY=0.5;exitDx=0;exitDy=0;exitPerimeter=0;" edge="1" parent="1" source="gCB_WG8x_ORxKZeke7Jf-99" target="gCB_WG8x_ORxKZeke7Jf-1">
          <mxGeometry relative="1" as="geometry" />
        </mxCell>
        <mxCell id="gCB_WG8x_ORxKZeke7Jf-107" value="&amp;lt;&amp;lt;monitor&amp;gt;&amp;gt;" style="edgeLabel;html=1;align=center;verticalAlign=middle;resizable=0;points=[];" vertex="1" connectable="0" parent="gCB_WG8x_ORxKZeke7Jf-106">
          <mxGeometry x="-0.0918" y="2" relative="1" as="geometry">
            <mxPoint y="11" as="offset" />
          </mxGeometry>
        </mxCell>
        <mxCell id="gCB_WG8x_ORxKZeke7Jf-108" style="edgeStyle=orthogonalEdgeStyle;rounded=0;orthogonalLoop=1;jettySize=auto;html=1;dashed=1;endArrow=open;endFill=0;exitX=0.5;exitY=0.5;exitDx=0;exitDy=0;exitPerimeter=0;" edge="1" parent="1" source="gCB_WG8x_ORxKZeke7Jf-101">
          <mxGeometry relative="1" as="geometry">
            <mxPoint x="62" y="650" as="sourcePoint" />
            <mxPoint x="146" y="648" as="targetPoint" />
          </mxGeometry>
        </mxCell>
        <mxCell id="gCB_WG8x_ORxKZeke7Jf-109" value="&amp;lt;&amp;lt;manage&amp;gt;&amp;gt;" style="edgeLabel;html=1;align=center;verticalAlign=middle;resizable=0;points=[];" vertex="1" connectable="0" parent="gCB_WG8x_ORxKZeke7Jf-108">
          <mxGeometry x="-0.0918" y="2" relative="1" as="geometry">
            <mxPoint y="10" as="offset" />
          </mxGeometry>
        </mxCell>
      </root>
    </mxGraphModel>
  </diagram>
  <diagram name="Parametric" id="4rpPQHh30AfkKimZbzoY">
    <mxGraphModel dx="1136" dy="741" grid="1" gridSize="10" guides="1" tooltips="1" connect="1" arrows="1" fold="1" page="1" pageScale="1" pageWidth="1169" pageHeight="827" math="0" shadow="0">
      <root>
        <mxCell id="xkjF12-G9QUdGMkJgW_--0" />
        <mxCell id="xkjF12-G9QUdGMkJgW_--1" parent="xkjF12-G9QUdGMkJgW_--0" />
        <mxCell id="K3iNNBBmgRJ47KyfW5JY-0" value="&lt;p style=&quot;margin:0px;margin-top:4px;margin-left:10px;text-align:left;&quot;&gt;&lt;b&gt;par&lt;/b&gt;&amp;nbsp;OLPT&lt;/p&gt;" style="html=1;shape=mxgraph.sysml.package;labelX=120;align=left;spacingLeft=10;overflow=fill;whiteSpace=wrap;recursiveResize=0;movable=1;resizable=1;rotatable=1;deletable=1;editable=1;locked=0;connectable=1;" vertex="1" parent="xkjF12-G9QUdGMkJgW_--1">
          <mxGeometry x="340" y="190" width="760" height="560" as="geometry" />
        </mxCell>
        <mxCell id="K3iNNBBmgRJ47KyfW5JY-8" value="&lt;p style=&quot;margin:0px;margin-top:4px;text-align:center;&quot;&gt;&amp;lt;&amp;lt;constraint&amp;gt;&amp;gt;&lt;br&gt;&lt;b&gt;Course Progress&lt;/b&gt;&lt;/p&gt;&lt;hr&gt;" style="html=1;shape=mxgraph.sysml.consProp;overflow=fill;whiteSpace=wrap;" vertex="1" parent="xkjF12-G9QUdGMkJgW_--1">
          <mxGeometry x="622.5" y="414" width="195" height="131" as="geometry" />
        </mxCell>
        <mxCell id="K3iNNBBmgRJ47KyfW5JY-9" value="completedModules: Integer" style="resizable=0;html=1;align=left;verticalAlign=middle;labelPosition=left;verticalLabelPosition=middle;labelBackgroundColor=none;spacingLeft=22;spacingTop=120;fontStyle=1;" connectable="0" vertex="1" parent="K3iNNBBmgRJ47KyfW5JY-8">
          <mxGeometry as="geometry" />
        </mxCell>
        <mxCell id="K3iNNBBmgRJ47KyfW5JY-10" value="totalModules: Integer" style="resizable=0;html=1;align=left;verticalAlign=middle;labelPosition=left;verticalLabelPosition=middle;labelBackgroundColor=none;spacingLeft=22;spacingTop=180;fontStyle=1;" connectable="0" vertex="1" parent="K3iNNBBmgRJ47KyfW5JY-8">
          <mxGeometry as="geometry" />
        </mxCell>
        <mxCell id="K3iNNBBmgRJ47KyfW5JY-27" value="&lt;p style=&quot;margin:0px;margin-top:4px;text-align:center;&quot;&gt;&amp;lt;&amp;lt;constraint&amp;gt;&amp;gt;&lt;br&gt;&lt;b&gt;Learning Time&lt;/b&gt;&lt;/p&gt;&lt;hr&gt;" style="html=1;shape=mxgraph.sysml.consProp;overflow=fill;whiteSpace=wrap;" vertex="1" parent="xkjF12-G9QUdGMkJgW_--1">
          <mxGeometry x="830" y="580" width="200" height="130" as="geometry" />
        </mxCell>
        <mxCell id="K3iNNBBmgRJ47KyfW5JY-28" value="sessionTime: Real [minutes]" style="resizable=0;html=1;align=left;verticalAlign=middle;labelPosition=left;verticalLabelPosition=middle;labelBackgroundColor=none;spacingLeft=22;spacingTop=120;fontStyle=1;" connectable="0" vertex="1" parent="K3iNNBBmgRJ47KyfW5JY-27">
          <mxGeometry as="geometry" />
        </mxCell>
        <mxCell id="K3iNNBBmgRJ47KyfW5JY-29" value="totalSessions: Integer" style="resizable=0;html=1;align=left;verticalAlign=middle;labelPosition=left;verticalLabelPosition=middle;labelBackgroundColor=none;spacingLeft=22;spacingTop=180;fontStyle=1;" connectable="0" vertex="1" parent="K3iNNBBmgRJ47KyfW5JY-27">
          <mxGeometry as="geometry" />
        </mxCell>
        <mxCell id="K3iNNBBmgRJ47KyfW5JY-30" value="&lt;p style=&quot;margin:0px;margin-top:4px;text-align:center;&quot;&gt;&amp;lt;&amp;lt;constraint&amp;gt;&amp;gt;&lt;br&gt;&lt;b&gt;Learning Streak&lt;/b&gt;&lt;/p&gt;&lt;hr&gt;" style="html=1;shape=mxgraph.sysml.consProp;overflow=fill;whiteSpace=wrap;" vertex="1" parent="xkjF12-G9QUdGMkJgW_--1">
          <mxGeometry x="410" y="570" width="197.5" height="130" as="geometry" />
        </mxCell>
        <mxCell id="K3iNNBBmgRJ47KyfW5JY-31" value="consecutiveDays: Integer" style="resizable=0;html=1;align=left;verticalAlign=middle;labelPosition=left;verticalLabelPosition=middle;labelBackgroundColor=none;spacingLeft=22;spacingTop=120;fontStyle=1;" connectable="0" vertex="1" parent="K3iNNBBmgRJ47KyfW5JY-30">
          <mxGeometry as="geometry" />
        </mxCell>
        <mxCell id="K3iNNBBmgRJ47KyfW5JY-32" value="lastLoginDate: Date" style="resizable=0;html=1;align=left;verticalAlign=middle;labelPosition=left;verticalLabelPosition=middle;labelBackgroundColor=none;spacingLeft=22;spacingTop=180;fontStyle=1;" connectable="0" vertex="1" parent="K3iNNBBmgRJ47KyfW5JY-30">
          <mxGeometry as="geometry" />
        </mxCell>
        <mxCell id="K3iNNBBmgRJ47KyfW5JY-48" style="edgeStyle=orthogonalEdgeStyle;shape=connector;rounded=0;orthogonalLoop=1;jettySize=auto;html=1;strokeColor=default;align=center;verticalAlign=middle;fontFamily=Helvetica;fontSize=12;fontColor=default;labelBackgroundColor=default;resizable=1;startFill=0;endArrow=none;" edge="1" parent="xkjF12-G9QUdGMkJgW_--1" source="K3iNNBBmgRJ47KyfW5JY-35" target="K3iNNBBmgRJ47KyfW5JY-8">
          <mxGeometry relative="1" as="geometry" />
        </mxCell>
        <mxCell id="K3iNNBBmgRJ47KyfW5JY-35" value="&lt;p style=&quot;margin:0px;margin-top:4px;text-align:center;&quot;&gt;&amp;lt;&amp;lt;constraint&amp;gt;&amp;gt;&lt;br&gt;&lt;b&gt;Completion Rate&lt;/b&gt;&lt;/p&gt;&lt;hr&gt;" style="html=1;shape=mxgraph.sysml.consProp;overflow=fill;whiteSpace=wrap;" vertex="1" parent="xkjF12-G9QUdGMkJgW_--1">
          <mxGeometry x="410" y="250" width="197.5" height="140" as="geometry" />
        </mxCell>
        <mxCell id="K3iNNBBmgRJ47KyfW5JY-36" value="completedCourses: Integer" style="resizable=0;html=1;align=left;verticalAlign=middle;labelPosition=left;verticalLabelPosition=middle;labelBackgroundColor=none;spacingLeft=22;spacingTop=120;fontStyle=1;" connectable="0" vertex="1" parent="K3iNNBBmgRJ47KyfW5JY-35">
          <mxGeometry as="geometry" />
        </mxCell>
        <mxCell id="K3iNNBBmgRJ47KyfW5JY-37" value="enrolledCourses: Integer" style="resizable=0;html=1;align=left;verticalAlign=middle;labelPosition=left;verticalLabelPosition=middle;labelBackgroundColor=none;spacingLeft=22;spacingTop=180;fontStyle=1;" connectable="0" vertex="1" parent="K3iNNBBmgRJ47KyfW5JY-35">
          <mxGeometry as="geometry" />
        </mxCell>
        <mxCell id="K3iNNBBmgRJ47KyfW5JY-45" style="edgeStyle=orthogonalEdgeStyle;rounded=0;orthogonalLoop=1;jettySize=auto;html=1;endArrow=none;startFill=0;" edge="1" parent="xkjF12-G9QUdGMkJgW_--1" source="K3iNNBBmgRJ47KyfW5JY-42" target="K3iNNBBmgRJ47KyfW5JY-27">
          <mxGeometry relative="1" as="geometry" />
        </mxCell>
        <mxCell id="K3iNNBBmgRJ47KyfW5JY-42" value="&lt;p style=&quot;margin:0px;margin-top:4px;text-align:center;&quot;&gt;&amp;lt;&amp;lt;constraint&amp;gt;&amp;gt;&lt;br&gt;&lt;b&gt;Average Session&lt;/b&gt;&lt;/p&gt;&lt;hr&gt;" style="html=1;shape=mxgraph.sysml.consProp;overflow=fill;whiteSpace=wrap;" vertex="1" parent="xkjF12-G9QUdGMkJgW_--1">
          <mxGeometry x="840" y="250" width="180" height="130" as="geometry" />
        </mxCell>
        <mxCell id="K3iNNBBmgRJ47KyfW5JY-43" value="totalTime: Real [minutes]" style="resizable=0;html=1;align=left;verticalAlign=middle;labelPosition=left;verticalLabelPosition=middle;labelBackgroundColor=none;spacingLeft=22;spacingTop=120;fontStyle=1;" connectable="0" vertex="1" parent="K3iNNBBmgRJ47KyfW5JY-42">
          <mxGeometry as="geometry" />
        </mxCell>
        <mxCell id="K3iNNBBmgRJ47KyfW5JY-44" value="sessionCount: Integer" style="resizable=0;html=1;align=left;verticalAlign=middle;labelPosition=left;verticalLabelPosition=middle;labelBackgroundColor=none;spacingLeft=22;spacingTop=180;fontStyle=1;" connectable="0" vertex="1" parent="K3iNNBBmgRJ47KyfW5JY-42">
          <mxGeometry as="geometry" />
        </mxCell>
        <mxCell id="K3iNNBBmgRJ47KyfW5JY-46" style="edgeStyle=orthogonalEdgeStyle;rounded=0;orthogonalLoop=1;jettySize=auto;html=1;entryX=1.009;entryY=0.582;entryDx=0;entryDy=0;entryPerimeter=0;fontFamily=Helvetica;fontSize=12;fontColor=default;resizable=1;endArrow=none;startFill=0;" edge="1" parent="xkjF12-G9QUdGMkJgW_--1" source="K3iNNBBmgRJ47KyfW5JY-27" target="K3iNNBBmgRJ47KyfW5JY-30">
          <mxGeometry relative="1" as="geometry" />
        </mxCell>
        <mxCell id="K3iNNBBmgRJ47KyfW5JY-47" style="edgeStyle=orthogonalEdgeStyle;shape=connector;rounded=0;orthogonalLoop=1;jettySize=auto;html=1;entryX=0.496;entryY=1.007;entryDx=0;entryDy=0;entryPerimeter=0;strokeColor=default;align=center;verticalAlign=middle;fontFamily=Helvetica;fontSize=12;fontColor=default;labelBackgroundColor=default;resizable=1;startFill=0;endArrow=none;" edge="1" parent="xkjF12-G9QUdGMkJgW_--1" source="K3iNNBBmgRJ47KyfW5JY-30" target="K3iNNBBmgRJ47KyfW5JY-35">
          <mxGeometry relative="1" as="geometry" />
        </mxCell>
      </root>
    </mxGraphModel>
  </diagram>
  <diagram name="Block-Definition" id="sbbH2qzMhru-XvdNbfEI">
    <mxGraphModel dx="710" dy="463" grid="1" gridSize="10" guides="1" tooltips="1" connect="1" arrows="1" fold="1" page="1" pageScale="1" pageWidth="1169" pageHeight="827" math="0" shadow="0">
      <root>
        <mxCell id="7cL7io8f4XZxOxzCLeC--0" />
        <mxCell id="7cL7io8f4XZxOxzCLeC--1" parent="7cL7io8f4XZxOxzCLeC--0" />
        <mxCell id="VXfeuVRvBuz54XGuOJCV-0" value="&lt;p style=&quot;margin:0px;margin-top:4px;margin-left:10px;text-align:left;&quot;&gt;&lt;b&gt;bdd&lt;/b&gt;   Online Learning Progress Tracker&lt;/p&gt;&lt;p style=&quot;margin:0px;margin-top:4px;margin-left:10px;text-align:left;&quot;&gt;&lt;br&gt;&lt;/p&gt;" style="html=1;shape=mxgraph.sysml.package;labelX=120;align=left;spacingLeft=10;overflow=fill;recursiveResize=0;strokeColor=default;verticalAlign=middle;fontFamily=Helvetica;fontSize=12;fontColor=default;labelBackgroundColor=default;resizable=1;fillColor=default;" vertex="1" parent="7cL7io8f4XZxOxzCLeC--1">
          <mxGeometry x="10" y="10" width="1140" height="620" as="geometry" />
        </mxCell>
        <mxCell id="VXfeuVRvBuz54XGuOJCV-6" value="" style="fontStyle=1;align=center;verticalAlign=middle;childLayout=stackLayout;horizontal=1;horizontalStack=0;resizeParent=1;resizeParentMax=0;resizeLast=0;marginBottom=0;strokeColor=default;spacingLeft=10;fontFamily=Helvetica;fontSize=12;fontColor=default;labelBackgroundColor=default;resizable=1;fillColor=default;" vertex="1" parent="7cL7io8f4XZxOxzCLeC--1">
          <mxGeometry x="410" y="40" width="250" height="116" as="geometry" />
        </mxCell>
        <mxCell id="VXfeuVRvBuz54XGuOJCV-7" value="Block 1" style="html=1;align=center;spacing=0;verticalAlign=middle;strokeColor=none;fillColor=none;whiteSpace=wrap;spacingLeft=10;fontFamily=Helvetica;fontSize=12;fontColor=default;labelBackgroundColor=default;resizable=1;fontStyle=1" vertex="1" parent="VXfeuVRvBuz54XGuOJCV-6">
          <mxGeometry width="250" height="20" as="geometry" />
        </mxCell>
        <mxCell id="VXfeuVRvBuz54XGuOJCV-9" value="" style="line;strokeWidth=0.25;fillColor=none;align=left;verticalAlign=middle;spacingTop=-1;spacingLeft=3;spacingRight=3;rotatable=0;labelPosition=right;points=[];portConstraint=eastwest;strokeColor=default;fontFamily=Helvetica;fontSize=12;fontColor=default;labelBackgroundColor=default;resizable=1;" vertex="1" parent="VXfeuVRvBuz54XGuOJCV-6">
          <mxGeometry y="20" width="250" height="8" as="geometry" />
        </mxCell>
        <mxCell id="VXfeuVRvBuz54XGuOJCV-8" value="Online Learning Progress Tracker&lt;div&gt;&lt;br&gt;&lt;/div&gt;" style="html=1;align=center;spacing=0;verticalAlign=middle;strokeColor=none;fillColor=none;whiteSpace=wrap;fontStyle=1;spacingLeft=10;fontFamily=Helvetica;fontSize=12;fontColor=default;labelBackgroundColor=default;resizable=1;" vertex="1" parent="VXfeuVRvBuz54XGuOJCV-6">
          <mxGeometry y="28" width="250" height="40" as="geometry" />
        </mxCell>
        <mxCell id="VXfeuVRvBuz54XGuOJCV-10" value="Frontend / User Interface&lt;br&gt;Backend / API Services&lt;br&gt;Database" style="html=1;align=left;spacing=0;spacingLeft=8;verticalAlign=middle;strokeColor=none;fillColor=none;whiteSpace=wrap;fontFamily=Helvetica;fontSize=12;fontColor=default;labelBackgroundColor=default;resizable=1;" vertex="1" parent="VXfeuVRvBuz54XGuOJCV-6">
          <mxGeometry y="68" width="250" height="42" as="geometry" />
        </mxCell>
        <mxCell id="VXfeuVRvBuz54XGuOJCV-12" value="" style="html=1;align=left;spacing=0;spacingLeft=8;verticalAlign=middle;strokeColor=none;fillColor=none;whiteSpace=wrap;fontFamily=Helvetica;fontSize=12;fontColor=default;labelBackgroundColor=default;resizable=1;" vertex="1" parent="VXfeuVRvBuz54XGuOJCV-6">
          <mxGeometry y="110" width="250" height="6" as="geometry" />
        </mxCell>
        <mxCell id="VXfeuVRvBuz54XGuOJCV-3" value="" style="strokeColor=inherit;fillColor=inherit;gradientColor=inherit;align=right;html=1;verticalAlign=bottom;endArrow=none;startArrow=diamondThin;startSize=14;startFill=1;edgeStyle=none;endFill=0;labelBackgroundColor=none;rounded=0;fontFamily=Helvetica;fontSize=12;fontColor=default;resizable=1;entryX=0.5;entryY=0;entryDx=0;entryDy=0;exitX=0;exitY=0;exitDx=0;exitDy=0;" edge="1" parent="7cL7io8f4XZxOxzCLeC--1" source="VXfeuVRvBuz54XGuOJCV-10" target="VXfeuVRvBuz54XGuOJCV-15">
          <mxGeometry x="-0.0149" y="4" relative="1" as="geometry">
            <mxPoint x="460" y="160" as="sourcePoint" />
            <mxPoint x="167.68456375838923" y="290" as="targetPoint" />
            <mxPoint as="offset" />
          </mxGeometry>
        </mxCell>
        <mxCell id="VXfeuVRvBuz54XGuOJCV-4" value="1" style="resizable=0;html=1;align=left;verticalAlign=top;labelBackgroundColor=none;fontSize=10;strokeColor=default;spacingLeft=10;fontFamily=Helvetica;fontColor=default;fillColor=default;" connectable="0" vertex="1" parent="VXfeuVRvBuz54XGuOJCV-3">
          <mxGeometry x="-1" relative="1" as="geometry" />
        </mxCell>
        <mxCell id="VXfeuVRvBuz54XGuOJCV-13" value="Composition" style="edgeLabel;html=1;align=center;verticalAlign=middle;resizable=0;points=[];strokeColor=default;spacingLeft=10;fontFamily=Helvetica;fontSize=12;fontColor=default;labelBackgroundColor=default;fillColor=default;" vertex="1" connectable="0" parent="VXfeuVRvBuz54XGuOJCV-3">
          <mxGeometry x="-0.0184" y="2" relative="1" as="geometry">
            <mxPoint y="-1" as="offset" />
          </mxGeometry>
        </mxCell>
        <mxCell id="VXfeuVRvBuz54XGuOJCV-14" value="" style="fontStyle=1;align=center;verticalAlign=middle;childLayout=stackLayout;horizontal=1;horizontalStack=0;resizeParent=1;resizeParentMax=0;resizeLast=0;marginBottom=0;strokeColor=default;spacingLeft=10;fontFamily=Helvetica;fontSize=12;fontColor=default;labelBackgroundColor=default;resizable=1;fillColor=default;" vertex="1" parent="7cL7io8f4XZxOxzCLeC--1">
          <mxGeometry x="40" y="260" width="190" height="136" as="geometry" />
        </mxCell>
        <mxCell id="VXfeuVRvBuz54XGuOJCV-15" value="Block 2" style="html=1;align=center;spacing=0;verticalAlign=middle;strokeColor=none;fillColor=none;whiteSpace=wrap;spacingLeft=10;fontFamily=Helvetica;fontSize=12;fontColor=default;labelBackgroundColor=default;resizable=1;fontStyle=1" vertex="1" parent="VXfeuVRvBuz54XGuOJCV-14">
          <mxGeometry width="190" height="20" as="geometry" />
        </mxCell>
        <mxCell id="VXfeuVRvBuz54XGuOJCV-16" value="" style="line;strokeWidth=0.25;fillColor=none;align=left;verticalAlign=middle;spacingTop=-1;spacingLeft=3;spacingRight=3;rotatable=0;labelPosition=right;points=[];portConstraint=eastwest;strokeColor=default;fontFamily=Helvetica;fontSize=12;fontColor=default;labelBackgroundColor=default;resizable=1;" vertex="1" parent="VXfeuVRvBuz54XGuOJCV-14">
          <mxGeometry y="20" width="190" height="8" as="geometry" />
        </mxCell>
        <mxCell id="VXfeuVRvBuz54XGuOJCV-17" value="Frontend / User Interface" style="html=1;align=center;spacing=0;verticalAlign=middle;strokeColor=none;fillColor=none;whiteSpace=wrap;fontStyle=1;spacingLeft=10;fontFamily=Helvetica;fontSize=12;fontColor=default;labelBackgroundColor=default;resizable=1;" vertex="1" parent="VXfeuVRvBuz54XGuOJCV-14">
          <mxGeometry y="28" width="190" height="40" as="geometry" />
        </mxCell>
        <mxCell id="VXfeuVRvBuz54XGuOJCV-18" value="User Authentication&lt;br&gt;Course Interface&lt;br&gt;Progress Dashboard&lt;br&gt;Manage Profife&amp;nbsp;" style="html=1;align=left;spacing=0;spacingLeft=8;verticalAlign=middle;strokeColor=none;fillColor=none;whiteSpace=wrap;fontFamily=Helvetica;fontSize=12;fontColor=default;labelBackgroundColor=default;resizable=1;" vertex="1" parent="VXfeuVRvBuz54XGuOJCV-14">
          <mxGeometry y="68" width="190" height="62" as="geometry" />
        </mxCell>
        <mxCell id="VXfeuVRvBuz54XGuOJCV-19" value="" style="html=1;align=left;spacing=0;spacingLeft=8;verticalAlign=middle;strokeColor=none;fillColor=none;whiteSpace=wrap;fontFamily=Helvetica;fontSize=12;fontColor=default;labelBackgroundColor=default;resizable=1;" vertex="1" parent="VXfeuVRvBuz54XGuOJCV-14">
          <mxGeometry y="130" width="190" height="6" as="geometry" />
        </mxCell>
        <mxCell id="VXfeuVRvBuz54XGuOJCV-72" style="edgeStyle=none;shape=connector;rounded=0;orthogonalLoop=1;jettySize=auto;html=1;entryX=0;entryY=0;entryDx=0;entryDy=0;dashed=1;strokeColor=default;align=center;verticalAlign=middle;fontFamily=Helvetica;fontSize=12;fontColor=default;labelBackgroundColor=default;resizable=1;startFill=0;endArrow=open;endFill=0;endSize=14;" edge="1" parent="7cL7io8f4XZxOxzCLeC--1" source="VXfeuVRvBuz54XGuOJCV-20" target="VXfeuVRvBuz54XGuOJCV-30">
          <mxGeometry relative="1" as="geometry" />
        </mxCell>
        <mxCell id="VXfeuVRvBuz54XGuOJCV-83" value="&lt;font&gt;Data operations&lt;/font&gt;" style="edgeLabel;html=1;align=center;verticalAlign=middle;resizable=0;points=[];strokeColor=default;spacingLeft=10;fontFamily=Helvetica;fontSize=10;fontColor=default;labelBackgroundColor=default;fillColor=default;" vertex="1" connectable="0" parent="VXfeuVRvBuz54XGuOJCV-72">
          <mxGeometry x="-0.0367" y="-2" relative="1" as="geometry">
            <mxPoint x="-8" y="-13" as="offset" />
          </mxGeometry>
        </mxCell>
        <mxCell id="VXfeuVRvBuz54XGuOJCV-20" value="" style="fontStyle=1;align=center;verticalAlign=middle;childLayout=stackLayout;horizontal=1;horizontalStack=0;resizeParent=1;resizeParentMax=0;resizeLast=0;marginBottom=0;strokeColor=default;spacingLeft=10;fontFamily=Helvetica;fontSize=12;fontColor=default;labelBackgroundColor=default;resizable=1;fillColor=default;" vertex="1" parent="7cL7io8f4XZxOxzCLeC--1">
          <mxGeometry x="340" y="260" width="200" height="136" as="geometry" />
        </mxCell>
        <mxCell id="VXfeuVRvBuz54XGuOJCV-21" value="Block 3" style="html=1;align=center;spacing=0;verticalAlign=middle;strokeColor=none;fillColor=none;whiteSpace=wrap;spacingLeft=10;fontFamily=Helvetica;fontSize=12;fontColor=default;labelBackgroundColor=default;resizable=1;fontStyle=1" vertex="1" parent="VXfeuVRvBuz54XGuOJCV-20">
          <mxGeometry width="200" height="20" as="geometry" />
        </mxCell>
        <mxCell id="VXfeuVRvBuz54XGuOJCV-22" value="" style="line;strokeWidth=0.25;fillColor=none;align=left;verticalAlign=middle;spacingTop=-1;spacingLeft=3;spacingRight=3;rotatable=0;labelPosition=right;points=[];portConstraint=eastwest;strokeColor=default;fontFamily=Helvetica;fontSize=12;fontColor=default;labelBackgroundColor=default;resizable=1;" vertex="1" parent="VXfeuVRvBuz54XGuOJCV-20">
          <mxGeometry y="20" width="200" height="8" as="geometry" />
        </mxCell>
        <mxCell id="VXfeuVRvBuz54XGuOJCV-23" value="Backend / API Services" style="html=1;align=center;spacing=0;verticalAlign=middle;strokeColor=none;fillColor=none;whiteSpace=wrap;fontStyle=1;spacingLeft=10;fontFamily=Helvetica;fontSize=12;fontColor=default;labelBackgroundColor=default;resizable=1;" vertex="1" parent="VXfeuVRvBuz54XGuOJCV-20">
          <mxGeometry y="28" width="200" height="40" as="geometry" />
        </mxCell>
        <mxCell id="VXfeuVRvBuz54XGuOJCV-24" value="User Service&lt;br&gt;Course Service&lt;br&gt;Progress Service&lt;br&gt;Auth Service" style="html=1;align=left;spacing=0;spacingLeft=8;verticalAlign=middle;strokeColor=none;fillColor=none;whiteSpace=wrap;fontFamily=Helvetica;fontSize=12;fontColor=default;labelBackgroundColor=default;resizable=1;" vertex="1" parent="VXfeuVRvBuz54XGuOJCV-20">
          <mxGeometry y="68" width="200" height="62" as="geometry" />
        </mxCell>
        <mxCell id="VXfeuVRvBuz54XGuOJCV-25" value="" style="html=1;align=left;spacing=0;spacingLeft=8;verticalAlign=middle;strokeColor=none;fillColor=none;whiteSpace=wrap;fontFamily=Helvetica;fontSize=12;fontColor=default;labelBackgroundColor=default;resizable=1;" vertex="1" parent="VXfeuVRvBuz54XGuOJCV-20">
          <mxGeometry y="130" width="200" height="6" as="geometry" />
        </mxCell>
        <mxCell id="VXfeuVRvBuz54XGuOJCV-26" value="" style="fontStyle=1;align=center;verticalAlign=middle;childLayout=stackLayout;horizontal=1;horizontalStack=0;resizeParent=1;resizeParentMax=0;resizeLast=0;marginBottom=0;strokeColor=default;spacingLeft=10;fontFamily=Helvetica;fontSize=12;fontColor=default;labelBackgroundColor=default;resizable=1;fillColor=default;" vertex="1" parent="7cL7io8f4XZxOxzCLeC--1">
          <mxGeometry x="640" y="262" width="190" height="116" as="geometry" />
        </mxCell>
        <mxCell id="VXfeuVRvBuz54XGuOJCV-27" value="Block 4" style="html=1;align=center;spacing=0;verticalAlign=middle;strokeColor=none;fillColor=none;whiteSpace=wrap;spacingLeft=10;fontFamily=Helvetica;fontSize=12;fontColor=default;labelBackgroundColor=default;resizable=1;fontStyle=1" vertex="1" parent="VXfeuVRvBuz54XGuOJCV-26">
          <mxGeometry width="190" height="20" as="geometry" />
        </mxCell>
        <mxCell id="VXfeuVRvBuz54XGuOJCV-28" value="" style="line;strokeWidth=0.25;fillColor=none;align=left;verticalAlign=middle;spacingTop=-1;spacingLeft=3;spacingRight=3;rotatable=0;labelPosition=right;points=[];portConstraint=eastwest;strokeColor=default;fontFamily=Helvetica;fontSize=12;fontColor=default;labelBackgroundColor=default;resizable=1;" vertex="1" parent="VXfeuVRvBuz54XGuOJCV-26">
          <mxGeometry y="20" width="190" height="8" as="geometry" />
        </mxCell>
        <mxCell id="VXfeuVRvBuz54XGuOJCV-29" value="Database/ Models" style="html=1;align=center;spacing=0;verticalAlign=middle;strokeColor=none;fillColor=none;whiteSpace=wrap;fontStyle=1;spacingLeft=10;fontFamily=Helvetica;fontSize=12;fontColor=default;labelBackgroundColor=default;resizable=1;" vertex="1" parent="VXfeuVRvBuz54XGuOJCV-26">
          <mxGeometry y="28" width="190" height="40" as="geometry" />
        </mxCell>
        <mxCell id="VXfeuVRvBuz54XGuOJCV-30" value="User Data&lt;br&gt;Course Data&lt;br&gt;Progress Data" style="html=1;align=left;spacing=0;spacingLeft=8;verticalAlign=middle;strokeColor=none;fillColor=none;whiteSpace=wrap;fontFamily=Helvetica;fontSize=12;fontColor=default;labelBackgroundColor=default;resizable=1;" vertex="1" parent="VXfeuVRvBuz54XGuOJCV-26">
          <mxGeometry y="68" width="190" height="42" as="geometry" />
        </mxCell>
        <mxCell id="VXfeuVRvBuz54XGuOJCV-31" value="" style="html=1;align=left;spacing=0;spacingLeft=8;verticalAlign=middle;strokeColor=none;fillColor=none;whiteSpace=wrap;fontFamily=Helvetica;fontSize=12;fontColor=default;labelBackgroundColor=default;resizable=1;" vertex="1" parent="VXfeuVRvBuz54XGuOJCV-26">
          <mxGeometry y="110" width="190" height="6" as="geometry" />
        </mxCell>
        <mxCell id="VXfeuVRvBuz54XGuOJCV-32" value="" style="fontStyle=1;align=center;verticalAlign=middle;childLayout=stackLayout;horizontal=1;horizontalStack=0;resizeParent=1;resizeParentMax=0;resizeLast=0;marginBottom=0;strokeColor=default;spacingLeft=10;fontFamily=Helvetica;fontSize=12;fontColor=default;labelBackgroundColor=default;resizable=1;fillColor=default;" vertex="1" parent="7cL7io8f4XZxOxzCLeC--1">
          <mxGeometry x="920" y="260" width="190" height="116" as="geometry" />
        </mxCell>
        <mxCell id="VXfeuVRvBuz54XGuOJCV-33" value="Block 5" style="html=1;align=center;spacing=0;verticalAlign=middle;strokeColor=none;fillColor=none;whiteSpace=wrap;spacingLeft=10;fontFamily=Helvetica;fontSize=12;fontColor=default;labelBackgroundColor=default;resizable=1;fontStyle=1" vertex="1" parent="VXfeuVRvBuz54XGuOJCV-32">
          <mxGeometry width="190" height="20" as="geometry" />
        </mxCell>
        <mxCell id="VXfeuVRvBuz54XGuOJCV-34" value="" style="line;strokeWidth=0.25;fillColor=none;align=left;verticalAlign=middle;spacingTop=-1;spacingLeft=3;spacingRight=3;rotatable=0;labelPosition=right;points=[];portConstraint=eastwest;strokeColor=default;fontFamily=Helvetica;fontSize=12;fontColor=default;labelBackgroundColor=default;resizable=1;" vertex="1" parent="VXfeuVRvBuz54XGuOJCV-32">
          <mxGeometry y="20" width="190" height="8" as="geometry" />
        </mxCell>
        <mxCell id="VXfeuVRvBuz54XGuOJCV-35" value="Middleware" style="html=1;align=center;spacing=0;verticalAlign=middle;strokeColor=none;fillColor=none;whiteSpace=wrap;fontStyle=1;spacingLeft=10;fontFamily=Helvetica;fontSize=12;fontColor=default;labelBackgroundColor=default;resizable=1;" vertex="1" parent="VXfeuVRvBuz54XGuOJCV-32">
          <mxGeometry y="28" width="190" height="40" as="geometry" />
        </mxCell>
        <mxCell id="VXfeuVRvBuz54XGuOJCV-36" value="Input Validators&lt;div&gt;Auth Middleware&lt;/div&gt;" style="html=1;align=left;spacing=0;spacingLeft=8;verticalAlign=middle;strokeColor=none;fillColor=none;whiteSpace=wrap;fontFamily=Helvetica;fontSize=12;fontColor=default;labelBackgroundColor=default;resizable=1;" vertex="1" parent="VXfeuVRvBuz54XGuOJCV-32">
          <mxGeometry y="68" width="190" height="42" as="geometry" />
        </mxCell>
        <mxCell id="VXfeuVRvBuz54XGuOJCV-37" value="" style="html=1;align=left;spacing=0;spacingLeft=8;verticalAlign=middle;strokeColor=none;fillColor=none;whiteSpace=wrap;fontFamily=Helvetica;fontSize=12;fontColor=default;labelBackgroundColor=default;resizable=1;" vertex="1" parent="VXfeuVRvBuz54XGuOJCV-32">
          <mxGeometry y="110" width="190" height="6" as="geometry" />
        </mxCell>
        <mxCell id="VXfeuVRvBuz54XGuOJCV-42" value="" style="fontStyle=1;align=center;verticalAlign=middle;childLayout=stackLayout;horizontal=1;horizontalStack=0;resizeParent=1;resizeParentMax=0;resizeLast=0;marginBottom=0;strokeColor=default;spacingLeft=10;fontFamily=Helvetica;fontSize=12;fontColor=default;labelBackgroundColor=default;resizable=1;fillColor=default;" vertex="1" parent="7cL7io8f4XZxOxzCLeC--1">
          <mxGeometry x="680" y="470" width="190" height="116" as="geometry" />
        </mxCell>
        <mxCell id="VXfeuVRvBuz54XGuOJCV-43" value="Block 6" style="html=1;align=center;spacing=0;verticalAlign=middle;strokeColor=none;fillColor=none;whiteSpace=wrap;spacingLeft=10;fontFamily=Helvetica;fontSize=12;fontColor=default;labelBackgroundColor=default;resizable=1;fontStyle=1" vertex="1" parent="VXfeuVRvBuz54XGuOJCV-42">
          <mxGeometry width="190" height="20" as="geometry" />
        </mxCell>
        <mxCell id="VXfeuVRvBuz54XGuOJCV-44" value="" style="line;strokeWidth=0.25;fillColor=none;align=left;verticalAlign=middle;spacingTop=-1;spacingLeft=3;spacingRight=3;rotatable=0;labelPosition=right;points=[];portConstraint=eastwest;strokeColor=default;fontFamily=Helvetica;fontSize=12;fontColor=default;labelBackgroundColor=default;resizable=1;" vertex="1" parent="VXfeuVRvBuz54XGuOJCV-42">
          <mxGeometry y="20" width="190" height="8" as="geometry" />
        </mxCell>
        <mxCell id="VXfeuVRvBuz54XGuOJCV-45" value="Auth Service" style="html=1;align=center;spacing=0;verticalAlign=middle;strokeColor=none;fillColor=none;whiteSpace=wrap;fontStyle=1;spacingLeft=10;fontFamily=Helvetica;fontSize=12;fontColor=default;labelBackgroundColor=default;resizable=1;" vertex="1" parent="VXfeuVRvBuz54XGuOJCV-42">
          <mxGeometry y="28" width="190" height="40" as="geometry" />
        </mxCell>
        <mxCell id="VXfeuVRvBuz54XGuOJCV-46" value="Token Generator&lt;br&gt;Session Manager&lt;br&gt;Validation Engine" style="html=1;align=left;spacing=0;spacingLeft=8;verticalAlign=middle;strokeColor=none;fillColor=none;whiteSpace=wrap;fontFamily=Helvetica;fontSize=12;fontColor=default;labelBackgroundColor=default;resizable=1;" vertex="1" parent="VXfeuVRvBuz54XGuOJCV-42">
          <mxGeometry y="68" width="190" height="42" as="geometry" />
        </mxCell>
        <mxCell id="VXfeuVRvBuz54XGuOJCV-47" value="" style="html=1;align=left;spacing=0;spacingLeft=8;verticalAlign=middle;strokeColor=none;fillColor=none;whiteSpace=wrap;fontFamily=Helvetica;fontSize=12;fontColor=default;labelBackgroundColor=default;resizable=1;" vertex="1" parent="VXfeuVRvBuz54XGuOJCV-42">
          <mxGeometry y="110" width="190" height="6" as="geometry" />
        </mxCell>
        <mxCell id="VXfeuVRvBuz54XGuOJCV-48" value="" style="fontStyle=1;align=center;verticalAlign=middle;childLayout=stackLayout;horizontal=1;horizontalStack=0;resizeParent=1;resizeParentMax=0;resizeLast=0;marginBottom=0;strokeColor=default;spacingLeft=10;fontFamily=Helvetica;fontSize=12;fontColor=default;labelBackgroundColor=default;resizable=1;fillColor=default;" vertex="1" parent="7cL7io8f4XZxOxzCLeC--1">
          <mxGeometry x="360" y="470" width="190" height="116" as="geometry" />
        </mxCell>
        <mxCell id="VXfeuVRvBuz54XGuOJCV-49" value="Block 7" style="html=1;align=center;spacing=0;verticalAlign=middle;strokeColor=none;fillColor=none;whiteSpace=wrap;spacingLeft=10;fontFamily=Helvetica;fontSize=12;fontColor=default;labelBackgroundColor=default;resizable=1;fontStyle=1" vertex="1" parent="VXfeuVRvBuz54XGuOJCV-48">
          <mxGeometry width="190" height="20" as="geometry" />
        </mxCell>
        <mxCell id="VXfeuVRvBuz54XGuOJCV-50" value="" style="line;strokeWidth=0.25;fillColor=none;align=left;verticalAlign=middle;spacingTop=-1;spacingLeft=3;spacingRight=3;rotatable=0;labelPosition=right;points=[];portConstraint=eastwest;strokeColor=default;fontFamily=Helvetica;fontSize=12;fontColor=default;labelBackgroundColor=default;resizable=1;" vertex="1" parent="VXfeuVRvBuz54XGuOJCV-48">
          <mxGeometry y="20" width="190" height="8" as="geometry" />
        </mxCell>
        <mxCell id="VXfeuVRvBuz54XGuOJCV-51" value="Course Service" style="html=1;align=center;spacing=0;verticalAlign=middle;strokeColor=none;fillColor=none;whiteSpace=wrap;fontStyle=1;spacingLeft=10;fontFamily=Helvetica;fontSize=12;fontColor=default;labelBackgroundColor=default;resizable=1;" vertex="1" parent="VXfeuVRvBuz54XGuOJCV-48">
          <mxGeometry y="28" width="190" height="40" as="geometry" />
        </mxCell>
        <mxCell id="VXfeuVRvBuz54XGuOJCV-52" value="Enroll Course&lt;br&gt;Learning Module&lt;br&gt;Assessment" style="html=1;align=left;spacing=0;spacingLeft=8;verticalAlign=middle;strokeColor=none;fillColor=none;whiteSpace=wrap;fontFamily=Helvetica;fontSize=12;fontColor=default;labelBackgroundColor=default;resizable=1;" vertex="1" parent="VXfeuVRvBuz54XGuOJCV-48">
          <mxGeometry y="68" width="190" height="42" as="geometry" />
        </mxCell>
        <mxCell id="VXfeuVRvBuz54XGuOJCV-53" value="" style="html=1;align=left;spacing=0;spacingLeft=8;verticalAlign=middle;strokeColor=none;fillColor=none;whiteSpace=wrap;fontFamily=Helvetica;fontSize=12;fontColor=default;labelBackgroundColor=default;resizable=1;" vertex="1" parent="VXfeuVRvBuz54XGuOJCV-48">
          <mxGeometry y="110" width="190" height="6" as="geometry" />
        </mxCell>
        <mxCell id="VXfeuVRvBuz54XGuOJCV-54" value="" style="fontStyle=1;align=center;verticalAlign=middle;childLayout=stackLayout;horizontal=1;horizontalStack=0;resizeParent=1;resizeParentMax=0;resizeLast=0;marginBottom=0;strokeColor=default;spacingLeft=10;fontFamily=Helvetica;fontSize=12;fontColor=default;labelBackgroundColor=default;resizable=1;fillColor=default;" vertex="1" parent="7cL7io8f4XZxOxzCLeC--1">
          <mxGeometry x="70" y="470" width="190" height="116" as="geometry" />
        </mxCell>
        <mxCell id="VXfeuVRvBuz54XGuOJCV-55" value="Block 7" style="html=1;align=center;spacing=0;verticalAlign=middle;strokeColor=none;fillColor=none;whiteSpace=wrap;spacingLeft=10;fontFamily=Helvetica;fontSize=12;fontColor=default;labelBackgroundColor=default;resizable=1;fontStyle=1" vertex="1" parent="VXfeuVRvBuz54XGuOJCV-54">
          <mxGeometry width="190" height="20" as="geometry" />
        </mxCell>
        <mxCell id="VXfeuVRvBuz54XGuOJCV-56" value="" style="line;strokeWidth=0.25;fillColor=none;align=left;verticalAlign=middle;spacingTop=-1;spacingLeft=3;spacingRight=3;rotatable=0;labelPosition=right;points=[];portConstraint=eastwest;strokeColor=default;fontFamily=Helvetica;fontSize=12;fontColor=default;labelBackgroundColor=default;resizable=1;" vertex="1" parent="VXfeuVRvBuz54XGuOJCV-54">
          <mxGeometry y="20" width="190" height="8" as="geometry" />
        </mxCell>
        <mxCell id="VXfeuVRvBuz54XGuOJCV-57" value="Progress Service" style="html=1;align=center;spacing=0;verticalAlign=middle;strokeColor=none;fillColor=none;whiteSpace=wrap;fontStyle=1;spacingLeft=10;fontFamily=Helvetica;fontSize=12;fontColor=default;labelBackgroundColor=default;resizable=1;" vertex="1" parent="VXfeuVRvBuz54XGuOJCV-54">
          <mxGeometry y="28" width="190" height="40" as="geometry" />
        </mxCell>
        <mxCell id="VXfeuVRvBuz54XGuOJCV-58" value="Tasks Completion&lt;br&gt;Learning Analytics&lt;br&gt;User Retention" style="html=1;align=left;spacing=0;spacingLeft=8;verticalAlign=middle;strokeColor=none;fillColor=none;whiteSpace=wrap;fontFamily=Helvetica;fontSize=12;fontColor=default;labelBackgroundColor=default;resizable=1;" vertex="1" parent="VXfeuVRvBuz54XGuOJCV-54">
          <mxGeometry y="68" width="190" height="42" as="geometry" />
        </mxCell>
        <mxCell id="VXfeuVRvBuz54XGuOJCV-59" value="" style="html=1;align=left;spacing=0;spacingLeft=8;verticalAlign=middle;strokeColor=none;fillColor=none;whiteSpace=wrap;fontFamily=Helvetica;fontSize=12;fontColor=default;labelBackgroundColor=default;resizable=1;" vertex="1" parent="VXfeuVRvBuz54XGuOJCV-54">
          <mxGeometry y="110" width="190" height="6" as="geometry" />
        </mxCell>
        <mxCell id="VXfeuVRvBuz54XGuOJCV-62" style="edgeStyle=none;shape=connector;rounded=0;orthogonalLoop=1;jettySize=auto;html=1;exitX=0.5;exitY=0;exitDx=0;exitDy=0;entryX=0.25;entryY=1;entryDx=0;entryDy=0;strokeColor=default;align=center;verticalAlign=middle;fontFamily=Helvetica;fontSize=12;fontColor=default;labelBackgroundColor=default;resizable=1;startFill=0;endArrow=diamondThin;endFill=1;strokeWidth=1;endSize=14;" edge="1" parent="7cL7io8f4XZxOxzCLeC--1" source="VXfeuVRvBuz54XGuOJCV-21" target="VXfeuVRvBuz54XGuOJCV-12">
          <mxGeometry relative="1" as="geometry" />
        </mxCell>
        <mxCell id="VXfeuVRvBuz54XGuOJCV-78" value="Composition" style="edgeLabel;html=1;align=center;verticalAlign=middle;resizable=0;points=[];strokeColor=default;spacingLeft=10;fontFamily=Helvetica;fontSize=12;fontColor=default;labelBackgroundColor=default;fillColor=default;" vertex="1" connectable="0" parent="VXfeuVRvBuz54XGuOJCV-62">
          <mxGeometry x="-0.0954" y="-1" relative="1" as="geometry">
            <mxPoint y="-1" as="offset" />
          </mxGeometry>
        </mxCell>
        <mxCell id="VXfeuVRvBuz54XGuOJCV-64" style="edgeStyle=none;shape=connector;rounded=0;orthogonalLoop=1;jettySize=auto;html=1;entryX=0.75;entryY=1;entryDx=0;entryDy=0;strokeColor=default;align=center;verticalAlign=middle;fontFamily=Helvetica;fontSize=12;fontColor=default;labelBackgroundColor=default;resizable=1;startFill=0;endArrow=diamondThin;endFill=1;endSize=14;" edge="1" parent="7cL7io8f4XZxOxzCLeC--1" source="VXfeuVRvBuz54XGuOJCV-27" target="VXfeuVRvBuz54XGuOJCV-12">
          <mxGeometry relative="1" as="geometry" />
        </mxCell>
        <mxCell id="VXfeuVRvBuz54XGuOJCV-79" value="Composition" style="edgeLabel;html=1;align=center;verticalAlign=middle;resizable=0;points=[];strokeColor=default;spacingLeft=10;fontFamily=Helvetica;fontSize=12;fontColor=default;labelBackgroundColor=default;fillColor=default;" vertex="1" connectable="0" parent="VXfeuVRvBuz54XGuOJCV-64">
          <mxGeometry x="0.0172" y="-3" relative="1" as="geometry">
            <mxPoint y="1" as="offset" />
          </mxGeometry>
        </mxCell>
        <mxCell id="VXfeuVRvBuz54XGuOJCV-65" style="edgeStyle=none;shape=connector;rounded=0;orthogonalLoop=1;jettySize=auto;html=1;exitX=0.5;exitY=0;exitDx=0;exitDy=0;entryX=1;entryY=0;entryDx=0;entryDy=0;strokeColor=default;align=center;verticalAlign=middle;fontFamily=Helvetica;fontSize=12;fontColor=default;labelBackgroundColor=default;resizable=1;startFill=0;endArrow=diamondThin;endFill=1;endSize=14;" edge="1" parent="7cL7io8f4XZxOxzCLeC--1" source="VXfeuVRvBuz54XGuOJCV-33" target="VXfeuVRvBuz54XGuOJCV-10">
          <mxGeometry relative="1" as="geometry" />
        </mxCell>
        <mxCell id="VXfeuVRvBuz54XGuOJCV-80" value="Composition" style="edgeLabel;html=1;align=center;verticalAlign=middle;resizable=0;points=[];strokeColor=default;spacingLeft=10;fontFamily=Helvetica;fontSize=12;fontColor=default;labelBackgroundColor=default;fillColor=default;" vertex="1" connectable="0" parent="VXfeuVRvBuz54XGuOJCV-65">
          <mxGeometry x="0.2085" y="2" relative="1" as="geometry">
            <mxPoint x="-1" as="offset" />
          </mxGeometry>
        </mxCell>
        <mxCell id="VXfeuVRvBuz54XGuOJCV-66" style="edgeStyle=none;shape=connector;rounded=0;orthogonalLoop=1;jettySize=auto;html=1;entryX=0;entryY=0.75;entryDx=0;entryDy=0;strokeColor=default;align=center;verticalAlign=middle;fontFamily=Helvetica;fontSize=12;fontColor=default;labelBackgroundColor=default;resizable=1;startFill=0;endArrow=diamondThin;endFill=1;endSize=14;" edge="1" parent="7cL7io8f4XZxOxzCLeC--1" source="VXfeuVRvBuz54XGuOJCV-55" target="VXfeuVRvBuz54XGuOJCV-25">
          <mxGeometry relative="1" as="geometry">
            <Array as="points" />
          </mxGeometry>
        </mxCell>
        <mxCell id="VXfeuVRvBuz54XGuOJCV-77" value="Composition" style="edgeLabel;html=1;align=center;verticalAlign=middle;resizable=0;points=[];strokeColor=default;spacingLeft=10;fontFamily=Helvetica;fontSize=12;fontColor=default;labelBackgroundColor=default;fillColor=default;" vertex="1" connectable="0" parent="VXfeuVRvBuz54XGuOJCV-66">
          <mxGeometry x="-0.1268" y="1" relative="1" as="geometry">
            <mxPoint x="-1" as="offset" />
          </mxGeometry>
        </mxCell>
        <mxCell id="VXfeuVRvBuz54XGuOJCV-67" style="edgeStyle=none;shape=connector;rounded=0;orthogonalLoop=1;jettySize=auto;html=1;entryX=1;entryY=1;entryDx=0;entryDy=0;strokeColor=default;align=center;verticalAlign=middle;fontFamily=Helvetica;fontSize=12;fontColor=default;labelBackgroundColor=default;resizable=1;startFill=0;endArrow=diamondThin;endFill=1;endSize=14;" edge="1" parent="7cL7io8f4XZxOxzCLeC--1" source="VXfeuVRvBuz54XGuOJCV-43" target="VXfeuVRvBuz54XGuOJCV-25">
          <mxGeometry relative="1" as="geometry" />
        </mxCell>
        <mxCell id="VXfeuVRvBuz54XGuOJCV-76" value="Composition" style="edgeLabel;html=1;align=center;verticalAlign=middle;resizable=0;points=[];strokeColor=default;spacingLeft=10;fontFamily=Helvetica;fontSize=12;fontColor=default;labelBackgroundColor=default;fillColor=default;" vertex="1" connectable="0" parent="VXfeuVRvBuz54XGuOJCV-67">
          <mxGeometry x="-0.1223" y="-2" relative="1" as="geometry">
            <mxPoint y="1" as="offset" />
          </mxGeometry>
        </mxCell>
        <mxCell id="VXfeuVRvBuz54XGuOJCV-68" style="edgeStyle=none;shape=connector;rounded=0;orthogonalLoop=1;jettySize=auto;html=1;exitX=0.5;exitY=0;exitDx=0;exitDy=0;strokeColor=default;align=center;verticalAlign=middle;fontFamily=Helvetica;fontSize=12;fontColor=default;labelBackgroundColor=default;resizable=1;startFill=0;endArrow=diamondThin;endFill=1;endSize=14;entryX=0.5;entryY=1;entryDx=0;entryDy=0;" edge="1" parent="7cL7io8f4XZxOxzCLeC--1" source="VXfeuVRvBuz54XGuOJCV-49" target="VXfeuVRvBuz54XGuOJCV-25">
          <mxGeometry relative="1" as="geometry">
            <mxPoint x="440" y="400" as="targetPoint" />
            <Array as="points" />
          </mxGeometry>
        </mxCell>
        <mxCell id="VXfeuVRvBuz54XGuOJCV-75" value="Composition" style="edgeLabel;html=1;align=center;verticalAlign=middle;resizable=0;points=[];strokeColor=default;spacingLeft=10;fontFamily=Helvetica;fontSize=12;fontColor=default;labelBackgroundColor=default;fillColor=default;" vertex="1" connectable="0" parent="VXfeuVRvBuz54XGuOJCV-68">
          <mxGeometry x="-0.2597" y="-4" relative="1" as="geometry">
            <mxPoint x="1" y="1" as="offset" />
          </mxGeometry>
        </mxCell>
        <mxCell id="VXfeuVRvBuz54XGuOJCV-71" style="edgeStyle=none;shape=connector;rounded=0;orthogonalLoop=1;jettySize=auto;html=1;exitX=0;exitY=0;exitDx=0;exitDy=0;entryX=1;entryY=0;entryDx=0;entryDy=0;strokeColor=default;align=center;verticalAlign=middle;fontFamily=Helvetica;fontSize=12;fontColor=default;labelBackgroundColor=default;resizable=1;startFill=0;endArrow=open;endFill=0;endSize=14;dashed=1;" edge="1" parent="7cL7io8f4XZxOxzCLeC--1" source="VXfeuVRvBuz54XGuOJCV-24" target="VXfeuVRvBuz54XGuOJCV-18">
          <mxGeometry relative="1" as="geometry">
            <Array as="points" />
          </mxGeometry>
        </mxCell>
        <mxCell id="VXfeuVRvBuz54XGuOJCV-81" value="" style="edgeLabel;html=1;align=center;verticalAlign=middle;resizable=0;points=[];strokeColor=default;spacingLeft=10;fontFamily=Helvetica;fontSize=12;fontColor=default;labelBackgroundColor=default;fillColor=default;" vertex="1" connectable="0" parent="VXfeuVRvBuz54XGuOJCV-71">
          <mxGeometry x="-0.0571" y="-2" relative="1" as="geometry">
            <mxPoint as="offset" />
          </mxGeometry>
        </mxCell>
        <mxCell id="VXfeuVRvBuz54XGuOJCV-82" value="REST API calls" style="edgeLabel;html=1;align=center;verticalAlign=middle;resizable=0;points=[];strokeColor=default;spacingLeft=10;fontFamily=Helvetica;fontSize=10;fontColor=default;labelBackgroundColor=default;fillColor=default;" vertex="1" connectable="0" parent="VXfeuVRvBuz54XGuOJCV-71">
          <mxGeometry x="-0.0312" y="1" relative="1" as="geometry">
            <mxPoint y="-9" as="offset" />
          </mxGeometry>
        </mxCell>
        <mxCell id="VXfeuVRvBuz54XGuOJCV-73" style="edgeStyle=none;shape=connector;rounded=0;orthogonalLoop=1;jettySize=auto;html=1;exitX=0.75;exitY=0;exitDx=0;exitDy=0;entryX=0.5;entryY=1;entryDx=0;entryDy=0;dashed=1;strokeColor=default;align=center;verticalAlign=middle;fontFamily=Helvetica;fontSize=12;fontColor=default;labelBackgroundColor=default;resizable=1;startFill=0;endArrow=open;endFill=0;endSize=14;" edge="1" parent="7cL7io8f4XZxOxzCLeC--1" source="VXfeuVRvBuz54XGuOJCV-43" target="VXfeuVRvBuz54XGuOJCV-37">
          <mxGeometry relative="1" as="geometry" />
        </mxCell>
        <mxCell id="VXfeuVRvBuz54XGuOJCV-74" value="&amp;lt;&amp;lt;uses&amp;gt;&amp;gt;" style="edgeLabel;html=1;align=center;verticalAlign=middle;resizable=0;points=[];strokeColor=default;spacingLeft=10;fontFamily=Helvetica;fontSize=12;fontColor=default;labelBackgroundColor=default;fillColor=default;" vertex="1" connectable="0" parent="VXfeuVRvBuz54XGuOJCV-73">
          <mxGeometry x="-0.101" y="-1" relative="1" as="geometry">
            <mxPoint x="1" as="offset" />
          </mxGeometry>
        </mxCell>
      </root>
    </mxGraphModel>
  </diagram>
</mxfile>
